<svg width="32" height="32" viewBox="0 0 32 32" fill="none" xmlns="http://www.w3.org/2000/svg">
<path d="M0.7 21.0172V10.8863L16 0.837479L31.3 10.8863V21.0172V31.3H0.7V21.0172Z" fill="#161619" stroke="#ABABA7" stroke-width="1.4"/>
<path d="M21.3043 26.9743L23.1865 27L23.2381 26.5891C22.9631 26.5035 22.774 26.3408 22.6709 26.1011C22.5677 25.8443 22.5162 25.4591 22.5162 24.9454V13.0546C22.5162 12.5409 22.5677 12.1643 22.6709 11.9246C22.774 11.6849 22.9631 11.5222 23.2381 11.4366L23.1865 11C22.3958 11.0342 21.7684 11.0514 21.3043 11.0514C20.6683 11.0514 19.9378 11.0342 19.1127 11L19.2674 11.4366C19.5768 11.5393 19.7831 11.7191 19.8862 11.9759C19.9894 12.2156 20.0409 12.5923 20.0409 13.1059V18.3451H11.1972V13.1059C11.1972 12.5923 11.2487 12.2156 11.3519 11.9759C11.4722 11.7191 11.6785 11.5393 11.9707 11.4366L12.0222 11C11.1972 11.0342 10.4838 11.0514 9.8822 11.0514C9.43529 11.0514 8.81648 11.0342 8.02578 11L8 11.4366C8.29221 11.5222 8.48989 11.6849 8.59302 11.9246C8.69616 12.1643 8.74772 12.5409 8.74772 13.0546V24.9454C8.74772 25.4591 8.69616 25.8443 8.59302 26.1011C8.48989 26.3408 8.29221 26.5035 8 26.5891V27L9.8822 26.9743L12.0222 27L11.9449 26.5891C11.6527 26.5035 11.455 26.3408 11.3519 26.1011C11.2487 25.8443 11.1972 25.4591 11.1972 24.9454V19.0128H20.0409V24.9454C20.0409 25.4762 19.9894 25.8614 19.8862 26.1011C19.7831 26.3408 19.5854 26.5035 19.2932 26.5891L19.1127 27L21.3043 26.9743Z" fill="#ABABA7"/>
</svg>
