<svg width="72" height="72" viewBox="0 0 72 72" fill="none" xmlns="http://www.w3.org/2000/svg">
<path d="M71.2918 36.3101C71.5226 43.4582 66.8576 51.989 59.9461 58.8878C53.0449 65.7763 44.0801 70.8589 35.9602 71.2716C33.116 71.4162 29.3205 71.0043 25.5393 70.1284C21.756 69.2519 18.0496 67.9253 15.3644 66.2771C5.34677 60.1281 0.7 48.93 0.7 36.2875C0.7 26.7529 7.03212 18.5428 14.7382 12.3993C22.4349 6.26336 31.3372 2.32406 36.1432 1.2886C40.9669 0.249299 45.8054 0.477131 49.8349 2.85358C53.8507 5.222 57.1934 9.80204 58.8796 17.742C59.2944 19.6952 60.3191 21.4126 61.5733 22.982C62.6934 24.3836 64.0297 25.706 65.3239 26.9867C65.474 27.1353 65.6235 27.2833 65.7721 27.4307C67.2183 28.8663 68.5763 30.2576 69.5909 31.725C70.5999 33.1844 71.2391 34.6775 71.2918 36.3101Z" stroke="#161619" stroke-width="1.4"/>
</svg>
